<svg xmlns="http://www.w3.org/2000/svg" width="109.94585mm" height="100.33568mm" viewBox="0 0 109.94585 100.33568" version="1.1">
  <g transform="translate(-41.404045,-62.911449)">
    <path style="fill:#ffffff;stroke:none;stroke-width:0.264583px;stroke-linecap:butt;stroke-linejoin:miter;stroke-opacity:1" d="m 56.934598,90.263926 c -8.100004,3.214521 -4.116739,18.944084 0.202811,27.890924 4.31955,8.94685 9.245292,26.09051 21.132727,25.54765 4.906265,-0.0185 13.22947,-11.52179 16.67522,-17.18832 3.445754,-5.66654 11.256574,-21.73989 13.198674,-26.604859 1.9421,-4.864972 5.38444,-15.59706 -0.0946,-19.567339 -5.47904,-3.970278 -11.567193,2.139729 -13.063672,5.799868 -1.49648,3.66014 -4.870219,11.886291 -6.075015,15.74236 -1.204795,3.85607 -7.456285,16.22651 -10.437717,16.07362 -2.285034,-0.11717 -8.054644,-11.59489 -9.919081,-16.19042 -1.864438,-4.595523 -5.21718,-14.073058 -11.619337,-11.503484 0,0 8.099994,-3.214521 -10e-6,0 z" id="path1263"/>
    <path style="fill:#ffffff;stroke:none;stroke-width:0.261158px;stroke-linecap:butt;stroke-linejoin:miter;stroke-opacity:1" d="m 125.75413,118.55134 c 7.66196,5.05042 17.16719,15.23511 8.91721,20.64083 -10.51089,6.88715 -27.0363,-19.08359 -27.0363,-19.08359 9.92613,-14.43306 19.90916,-27.01587 26.51461,-21.050534 6.60545,5.965334 -0.80418,13.234254 -8.39552,19.493294 z" id="path1265"/>
    <path style="fill:#ffffff;stroke:none;stroke-width:0.371008px;stroke-linecap:butt;stroke-linejoin:miter;stroke-opacity:1" d="m 107.24695,135.93476 c 3.15172,4.75341 -1.15841,15.06646 -7.797091,13.97152 -6.638699,-1.09493 -8.224851,-8.67802 -4.968655,-14.05915 3.256195,-5.38112 9.614016,-4.66578 12.765746,0.0876 z" id="path1267"/>
  </g>
</svg>