<svg height="34" viewBox="10.200000762939453 55.20000076293945 705.5 138.39999389648438" width="171" xmlns="http://www.w3.org/2000/svg"><path d="M12.3 150.1c-.4 3.3-1 6.6-2.1 9.8 3.7 4.1 12.5 6.4 17.9 6.4 15 0 27.2-9.4 27.2-25.1 0-23.5-34.7-15.3-34.7-35.6 0-7.8 6.3-12.9 13.9-12.9 6.5 0 11.3 3.6 13.6 9.6h1.1c.9-3.1 1.7-6.2 3-9C48.2 89.7 41.8 88 36.6 88c-13.2 0-24.4 6.9-24.4 21.1 0 24.9 34.5 15.9 34.5 36.3 0 8.7-6.4 16.1-15.3 16.1-8.6 0-13.5-4.4-17.8-11.4H12.3zM109.1 153.7c-3 2.9-8.8 7.6-16.3 7.6-13.3 0-20-10.6-19-22.9h15.5c7.4 0 14.9.1 22.3.3 1.1-18.4-10.1-27-22.3-27-16.4 0-25.2 11.8-25.2 27.1 0 17.1 10.8 27.1 26 27.1 6.7 0 13.5-2.6 18.9-6.5L109.1 153.7zM73.8 134.3c.7-9.2 5.2-19.2 15.5-19.2 10.9 0 13.5 9.6 13.8 19.2H73.8zM165.2 153.7c-3 2.9-8.8 7.6-16.3 7.6-13.3 0-20-10.6-19-22.9h15.5c7.4 0 14.9.1 22.3.3 1.1-18.4-10.1-27-22.3-27-16.4 0-25.2 11.8-25.2 27.1 0 17.1 10.8 27.1 26 27.1 6.7 0 13.5-2.6 18.9-6.5L165.2 153.7zM129.9 134.3c.7-9.2 5.2-19.2 15.5-19.2 10.9 0 13.5 9.6 13.8 19.2H129.9zM185.7 82.3c-1.7.1-3 .3-4.4.3-1.5 0-3-.2-4.4-.3V165c1.4-.1 2.9-.3 4.4-.3 1.4 0 2.7.2 4.4.3v-22.5c0-4.7 1.5-5.1 4-2.3 7 8 15.7 17.8 21 24.8 1.8-.1 3.5-.3 5.5-.3 1.8 0 3.3.2 5.4.3v-.6c-8.7-9.9-17.9-20.9-25.9-30.1 10.1-9.6 19.8-17.3 24.2-21.2v-.8c-1.7.1-3 .3-4.3.3-1.5 0-3-.2-4.4-.3l-8.6 9.5-6.8 6.9c-1.4 1.4-7.3 7.7-9.6 6.5-1-.6-.5-2.2-.5-3.6V82.3zM238.6 112.4c-1.7.1-3 .3-4.4.3-1.5 0-3-.2-4.4-.3V165c1.4-.1 2.9-.3 4.4-.3 1.4 0 2.8.2 4.4.3V112.4zM239.8 93.5c0-3.1-2.6-5.6-5.6-5.6-3.1 0-5.6 2.5-5.6 5.6 0 3.1 2.5 5.6 5.6 5.6C237.1 99.2 239.8 96.6 239.8 93.5zM248 165c1.4-.1 2.9-.3 4.4-.3 1.4 0 2.8.2 4.4.3v-25.5c0-13.5 2.9-22 14.4-22 10.3 0 12.2 8 12.2 18.3V165c1.4-.1 2.9-.3 4.4-.3 1.4 0 2.8.2 4.4.3v-31.8c0-14.5-4.9-21.5-17.7-21.5-7.8 0-13.9 4-17.7 10.7v-10c-1.6.1-3 .3-4.4.3-1.5 0-3-.2-4.4-.3V165zM323 164.1c8.3 0 16.2.8 16.2 12.2 0 10.3-9.5 14.1-17.4 14.1-9.1 0-15.8-4.4-15.8-13.3C305.9 168.2 311.5 164 323 164.1zM346.3 112c-2.6.4-5.3.6-7.9.2l-15.3-.6c-16.1-.6-22.2 6.8-22.2 17.5 0 8.1 4.1 12.7 10.7 15.7-4.3 1.9-7.6 4.2-7.6 9.5 0 6.7 3.5 8.4 6.7 8.9v.9c-6.8 1.2-11.4 5.4-11.4 13.3 0 11.6 10.9 16.2 19.9 16.2 16.8 0 28-8.8 28-21.7 0-9.4-6.1-14.6-19-14.6h-7c-6.6 0-10.6-.7-10.6-5.3 0-6.4 6.6-5.3 7.9-5.3 12.8 0 23.4-5.1 23.4-17.1 0-6.2-3.1-11-7.6-14.5l12.1 1V112zM309.2 129.1c0-8.4 4.5-14.4 12.4-14.4 8.7 0 11.8 6.5 11.8 15 0 7.5-4.2 14.4-12.2 14.4C313.2 144.1 308.9 136.9 309.2 129.1zM417.5 88H415L380.6 165c1.2-.1 2.4-.3 3.9-.3 1.3 0 2.5.2 4.1.3 3.1-10.3 7-20 10.9-29.7h28c4.4 10 8.4 20.6 11.6 29.7 1.9-.1 3.7-.3 5.8-.3 1.9 0 3.6.2 5.7.3L417.5 88zM425.7 130.6h-24.2l12-28.2L425.7 130.6zM458.7 165c1.4-.1 2.9-.3 4.4-.3 1.4 0 2.8.2 4.4.3V82.3c-1.7.1-3 .3-4.4.3-1.5 0-3-.2-4.4-.3V165zM485.7 140.1c0-10.2 3.3-24.7 16.1-24.7 11.9 0 15.2 11.1 15.2 21.9 0 12.8-4 23.9-15.1 23.9C490.6 161.3 485.7 151.9 485.7 140.1zM485.7 155.3h.2c3.6 6.8 9 10.6 16.9 10.6 14.1 0 23.8-10.9 23.8-28.9 0-13.2-7.9-25.2-22.1-25.2-13.3 0-16.7 8-18.6 11.8h-.2v-11.1c-1.7.1-3 .3-4.4.3-1.5 0-3-.2-4.4-.3v80.8c1.4-.1 2.9-.3 4.4-.3 1.4 0 2.7.2 4.4.3V155.3zM536 165c1.4-.1 2.9-.3 4.4-.3 1.4 0 2.8.2 4.4.3v-29.9c0-11.5 4.5-17.6 14.4-17.6 9.4 0 12.2 6.1 12.2 18.3V165c1.4-.1 2.9-.3 4.4-.3 1.4 0 2.8.2 4.4.3v-31.8c0-13.9-5-21.5-17.7-21.5-7.8 0-13.9 4-17.7 10.7V82.3c-1.7.1-3 .3-4.4.3-1.5 0-3-.2-4.4-.3V165zM628.7 130.2c0-12.4-6.3-18.5-17.8-18.5-6.5 0-12.4 2.4-17.7 6.1v6.2h1.2c.8-2.4 5.1-7.6 13.1-7.6 8.3 0 12.9 4.7 12.9 12.9 0 5.3-3 5.9-11.7 7.4-10.4 1.7-20.4 3.3-20.4 15.9 0 8.1 6.8 13.4 14.6 13.4 6.6 0 11.7-2.3 16.3-6.9l1-1c.9 6.5 5.6 7.4 11.3 6.4 1.2-.2 2.5-.8 3.3-1.1v-2.4c-6.5 1.4-6.2-.8-6.2-5.1V130.2zM619.9 153.7c0 .8-2.2 2.6-3 3.4-2.1 2.1-5.8 4.2-8.8 4.2-6.7 0-10.8-3.4-10.8-10.3 0-10 11.2-11.1 18.7-12.6l3.8-.8V153.7z" fill="#361211"></path><path d="M649,88c0,15,7.5,27.4,17.5,27.1c14-0.4,18.1-12.2,18.1-27.2c0-15-8.1-27.3-18.1-27.2 C654.2,60.8,649,73,649,88z M638.1,88c2.1-32.1,27.3-32.8,27.3-32.8c18.3,0.1,23.5,19.6,23.5,19.6c0.3,1.1,10.9-18.2,10.9-18.2h6 C693.5,83.1,694,93.9,694,93.9c-1,14.3,7,19.2,7,19.2c7.5,4.8,8-9.2,8-9.2c1.7-0.6,2.7-1.2,2.7-1.2c4,19.4-8,18.1-8,18.1 c-9.3,1-13.3-14.2-13.3-14.2c-13.2,17.4-28.4,13.6-28.4,13.6C636,117,638.1,88,638.1,88z" fill="#F37321"></path></svg>
